PathFileType	4	(X/Y/Z)	D:/83_35.trc
DataRate	CameraRate	NumFrames	NumMarkers	Units	OrigDataRate	OrigDataStartFrame	OrigNumFrames
120.00	120.00	8	41	mm	120.00	99	1048
Frame#	Time	LFWT			RFWT			LBWT			RBWT			LTHI			LKNE			LSHN			LANK			LHEE			LMT5			LTOE			RTHI			RKNE			RSHN			RANK			RHEE			RMT5			RTOE			CLAV			STRN			C7			T10			RBAC			LFHD			RFHD			LBHD			RBHD			LSHO			LUPA			LELB			LFRM			LWRA			LWRB			LFIN			RSHO			RUPA			RELB			RFRM			RWRA			RWRB			RFIN
		X1	Y1	Z1	X2	Y2	Z2	X3	Y3	Z3	X4	Y4	Z4	X5	Y5	Z5	X6	Y6	Z6	X7	Y7	Z7	X8	Y8	Z8	X9	Y9	Z9	X10	Y10	Z10	X11	Y11	Z11	X12	Y12	Z12	X13	Y13	Z13	X14	Y14	Z14	X15	Y15	Z15	X16	Y16	Z16	X17	Y17	Z17	X18	Y18	Z18	X19	Y19	Z19	X20	Y20	Z20	X21	Y21	Z21	X22	Y22	Z22	X23	Y23	Z23	X24	Y24	Z24	X25	Y25	Z25	X26	Y26	Z26	X27	Y27	Z27	X28	Y28	Z28	X29	Y29	Z29	X30	Y30	Z30	X31	Y31	Z31	X32	Y32	Z32	X33	Y33	Z33	X34	Y34	Z34	X35	Y35	Z35	X36	Y36	Z36	X37	Y37	Z37	X38	Y38	Z38	X39	Y39	Z39	X40	Y40	Z40	X41	Y41	Z41

1	0.000	1693.71484	348.87329	880.35162	1693.95630	613.80542	874.38977	1858.45630	396.42215	959.59027	1852.92468	537.04468	962.83350	1768.71838	303.70630	589.63550	1779.78845	331.07578	437.12604	1824.69751	314.15775	206.94720	1858.44763	339.28195	77.12300	1914.81641	382.78305	60.79038	1760.08716	312.86359	33.92972	1721.01331	399.72791	53.74705	1774.99548	644.17346	665.85754	1786.00623	608.67413	439.88577	1823.95984	631.42072	329.60559	1854.99023	566.29193	58.51077	1919.93347	519.09149	16.51104	1751.20984	601.09570	33.76458	1712.39819	524.99011	52.39593	1685.01611	446.72205	1315.83508	1669.99402	452.72751	1137.83850	1816.42175	443.93970	1390.79431	1887.57300	458.09369	1179.64282	1878.69446	532.42877	1271.63135	1625.16406	374.62286	1562.32153	1645.28308	535.17175	1556.96411	1774.78113	382.02563	1515.79407	1791.58362	492.68686	1514.91772	1776.60083	303.16443	1381.93420	1823.33032	227.15775	1164.74060	1845.19800	224.88956	1067.01660	1853.70776	214.68433	901.09528	1731.91113	229.71223	799.30579	1867.94250	172.37144	797.37817	1783.88733	190.76315	733.22180	1767.40405	598.19678	1379.41846	1798.08875	673.71313	1268.08289	1855.50793	680.34583	1077.18115	1863.28198	673.91876	1002.20630	1700.09363	720.96002	821.55536	1841.11926	753.99194	805.28577	1806.89014	748.59619	768.31763
2	0.008	1693.94214	348.91422	880.30457	1693.90625	614.09070	874.24304	1858.67700	396.72192	959.76715	1852.92542	537.33850	962.77356	1768.68335	303.79208	589.63678	1779.78210	331.12601	437.33112	1824.69006	314.14737	206.94994	1858.38367	339.20700	77.21136	1914.86462	382.77835	60.76292	1760.08911	312.87927	33.94784	1721.00610	399.66245	53.70134	1774.83264	644.22113	665.70044	1786.00623	608.67413	439.88577	1823.98743	631.75201	329.67053	1854.98230	566.23053	58.49920	1920.06555	519.02399	16.55957	1751.18372	601.10883	33.67939	1712.47937	524.95966	52.34542	1685.01440	446.72580	1315.79431	1669.99304	452.82898	1137.87524	1816.22876	444.07651	1390.82910	1887.63843	458.42123	1179.82605	1878.52551	532.79395	1271.68494	1625.05493	375.32632	1563.98694	1646.06384	536.34094	1557.14050	1774.34155	382.45926	1515.83179	1791.96594	492.80899	1515.36926	1776.72620	303.28796	1382.14490	1823.70496	227.42758	1164.97363	1845.51880	225.29048	1067.27063	1854.23657	214.92436	901.41962	1732.75757	229.27055	799.39417	1868.58203	172.46054	797.57953	1784.47717	190.82953	733.33319	1767.25745	598.33844	1379.48376	1797.96313	673.98065	1268.26282	1855.29175	680.73340	1077.29114	1863.28394	674.17181	1002.19830	1700.34717	721.48376	821.48999	1841.43799	754.52655	805.63037	1807.30786	750.06366	768.45135
3	0.017	1693.94214	348.91422	880.30457	1693.88831	614.35236	874.10577	1858.75745	396.95175	959.92291	1853.14587	537.66870	963.00537	1768.64087	303.98160	589.64832	1780.20776	331.14670	437.44650	1824.66589	314.15692	206.96913	1858.33301	339.32550	77.18427	1914.97302	382.75800	60.80246	1760.13293	312.88583	33.93506	1721.07019	399.79639	53.65547	1774.57239	644.25464	665.56079	1786.00623	608.67413	439.88577	1824.14001	631.89490	329.78796	1855.09070	566.24347	58.61761	1920.12207	518.94580	16.58465	1751.14063	601.15814	33.44712	1712.55847	524.95929	52.40752	1684.91028	446.74713	1315.89771	1669.91699	452.92505	1137.90344	1816.09314	444.23584	1390.92261	1887.78125	458.77170	1180.10461	1878.56763	533.27454	1271.87964	1624.94568	376.02975	1565.65234	1646.17749	537.15100	1557.08081	1774.12854	382.88733	1515.96838	1790.53821	493.05923	1514.61560	1776.88135	303.51074	1382.27014	1823.99451	227.65897	1165.14673	1845.86914	225.53661	1067.43457	1854.69055	214.97482	901.43805	1733.59131	229.02888	799.61603	1868.93359	172.48782	797.60126	1784.85107	190.97357	733.40216	1766.96936	598.49359	1379.50183	1797.69421	674.22308	1268.28101	1855.19861	681.17780	1077.31812	1863.41895	674.49829	1002.31036	1700.55042	721.94995	821.40350	1841.60120	755.05701	805.72375	1807.53027	750.87012	768.58881
4	0.025	1693.94214	348.91422	880.30457	1694.17969	614.41022	874.05707	1858.92053	397.15601	960.03027	1853.30493	537.74646	963.07788	1768.92310	304.32196	589.83936	1780.17224	331.04465	437.66693	1824.63220	314.19675	207.00208	1858.38611	339.42035	77.11897	1915.00366	382.78873	60.88627	1760.09521	312.99176	33.85673	1721.07727	399.86185	53.70118	1774.43298	644.32111	665.55334	1786.00623	608.67413	439.88577	1824.25171	631.76929	329.79556	1855.21570	566.56592	58.83110	1920.15320	519.00110	16.67901	1751.07983	601.20306	33.37169	1712.60999	524.98804	52.47356	1684.73364	446.80353	1316.16418	1669.81812	453.10834	1137.93616	1816.17627	444.59665	1391.03186	1887.86023	459.01501	1180.20850	1878.49963	533.49713	1271.83337	1624.70544	376.06305	1565.11719	1645.71021	537.28809	1556.91113	1774.12280	382.99612	1516.06189	1790.58362	493.23352	1514.91748	1776.98926	303.73520	1382.30115	1824.18433	227.69116	1165.30835	1846.40369	225.59665	1067.72534	1854.93994	215.06851	901.19812	1734.12170	228.93033	799.79053	1869.42578	172.59338	797.83777	1785.39355	190.89766	733.66425	1766.57373	598.56409	1379.41626	1797.54492	674.46722	1268.34216	1855.27527	681.59729	1077.48303	1863.67725	674.98889	1002.68506	1700.58154	722.23822	821.37036	1841.86426	755.56775	805.84192	1807.68921	751.12024	768.61646
5	0.033	1693.94214	348.91422	880.30457	1694.48682	614.51215	873.91895	1858.81543	397.39761	959.63171	1853.34265	537.83063	962.93536	1769.32397	304.64575	590.00568	1780.03247	330.88843	437.79160	1824.61548	314.21664	207.01855	1858.44873	339.41260	77.12666	1914.85352	382.85446	60.86318	1759.97388	313.11588	33.84019	1721.02209	399.84821	53.72750	1774.36768	644.60040	665.53650	1786.07422	608.70795	439.84332	1824.34082	631.65747	329.72836	1855.18042	566.70050	58.84982	1920.42529	519.08026	16.80795	1750.95740	601.23383	33.33481	1712.57520	524.96838	52.39690	1684.79468	446.87173	1316.37341	1669.73877	453.21341	1137.98071	1816.32556	444.89346	1391.14624	1887.89612	459.20380	1180.21338	1878.33105	533.62885	1271.70056	1624.44299	375.88150	1564.27271	1645.23950	537.05560	1556.54419	1773.97070	383.08588	1516.06689	1790.57434	493.52292	1515.19861	1777.14099	303.98923	1382.33435	1824.39307	227.81212	1165.39111	1847.04077	225.52768	1068.16736	1855.12695	215.36177	901.09113	1734.41174	228.85345	799.95734	1870.04688	172.82637	798.15253	1785.89014	190.66039	734.15826	1766.27820	598.72699	1379.43787	1797.59424	674.74323	1268.61316	1855.36768	681.95917	1077.78137	1863.82166	675.46771	1002.95081	1700.61353	722.51483	821.29553	1842.04150	755.97064	806.04883	1807.66772	751.32104	768.79956
6	0.042	1693.88538	348.90399	880.31635	1694.42798	614.69727	873.80688	1858.48328	397.66580	959.02570	1853.31091	538.22443	963.01819	1769.38696	304.83554	590.01337	1780.05237	330.83838	437.75742	1824.61548	314.21664	207.01855	1858.45898	339.42914	77.12478	1914.76550	382.91122	60.84056	1760.00854	312.98645	33.89134	1720.93152	399.84891	53.74343	1774.31738	644.86877	665.52777	1786.14233	608.74176	439.80087	1824.42700	631.77246	329.66840	1855.07654	566.57935	58.61748	1920.42798	519.10553	16.67617	1751.02820	601.21472	33.39222	1712.54895	525.00000	52.29609	1684.92078	446.92258	1316.33398	1669.86475	453.28650	1137.84009	1816.28394	445.04257	1391.18579	1887.87561	459.41199	1180.29065	1878.30444	533.96082	1271.78198	1624.68005	375.70047	1565.40515	1644.96692	537.00629	1556.15820	1774.13464	383.17319	1516.27136	1789.17871	494.05679	1514.63574	1777.46558	304.20554	1382.45605	1824.78076	228.10147	1165.51929	1847.47009	225.52084	1068.36682	1855.43787	215.57687	901.14856	1734.49731	228.79491	800.13562	1870.51477	172.92328	798.33734	1785.95020	190.56812	734.59015	1766.14429	599.05157	1379.60425	1797.54468	674.95764	1268.95667	1855.40320	682.29248	1078.06653	1863.79956	675.84698	1003.14288	1700.76636	722.69434	821.23987	1842.15369	756.38940	806.24707	1807.73267	751.57251	769.10327
7	0.050	1693.77173	348.88351	880.33984	1694.23694	614.72913	873.89996	1858.51526	397.92261	958.89172	1853.17322	538.51953	963.07214	1769.49207	304.96335	590.09625	1780.13635	330.94421	437.86572	1824.60059	314.19595	207.02399	1858.49438	339.46756	77.23080	1914.77588	382.85077	61.01109	1760.08521	312.84793	33.91160	1720.83203	399.72931	53.77893	1774.37769	644.95972	665.54712	1786.14233	608.74176	439.80087	1824.41614	631.99524	329.61990	1854.97388	566.37164	58.36047	1920.17468	519.11530	16.54561	1751.09973	601.19305	33.46744	1712.59204	525.07092	52.34861	1684.91357	446.93759	1316.17090	1669.85486	453.45816	1137.89355	1816.16821	445.22687	1391.02759	1887.68115	459.71912	1180.22559	1878.17322	534.43512	1271.89685	1625.02051	375.57660	1565.21545	1644.87732	537.03595	1556.03564	1774.72742	383.14569	1516.65515	1789.82898	493.95511	1514.96619	1777.70508	304.26810	1382.48303	1825.25024	228.19997	1165.73242	1847.83337	225.59093	1068.36133	1855.74072	215.60640	901.27124	1734.49304	228.58426	800.35052	1870.70581	172.94189	798.45215	1785.93066	190.48964	734.92523	1765.97644	599.30511	1379.70520	1797.24927	675.12524	1269.19690	1855.49036	682.61108	1078.40686	1863.67200	676.22681	1003.31061	1700.98499	722.89941	821.30322	1842.39014	756.87677	806.41858	1807.97302	751.82092	769.20508
8	0.058	1693.83008	348.95239	880.41766	1694.23804	614.70441	873.94019	1858.76306	398.14102	959.12714	1853.11499	538.70618	963.02716	1769.75757	304.95184	590.12988	1780.02502	331.10306	438.11093	1824.55164	314.19910	207.05974	1858.49280	339.55511	77.32445	1914.70557	382.76981	61.11182	1759.98669	312.84570	33.97903	1720.78088	399.59238	53.79707	1774.45190	645.15820	665.56921	1786.17517	608.82776	439.79135	1824.38477	632.27869	329.64478	1854.91504	566.27271	58.13240	1920.08435	519.11292	16.55793	1751.16235	601.18756	33.52739	1712.59534	525.05884	52.44534	1685.00391	446.96906	1316.20850	1669.57288	453.53745	1138.32568	1816.29871	445.51617	1391.06067	1887.48950	460.13672	1180.11328	1877.88806	534.89630	1272.01343	1625.47351	375.42441	1565.58447	1644.62878	536.97864	1555.71692	1775.25757	383.40790	1517.16626	1789.85535	494.19861	1514.98645	1777.80737	304.43109	1382.50671	1825.77222	228.06245	1166.01648	1848.18921	225.64027	1068.42761	1855.95825	215.59117	901.55371	1734.46606	228.42619	800.52313	1870.75037	172.98376	798.57898	1785.88586	190.25755	735.20941	1765.70862	599.43494	1379.71887	1796.79932	675.27747	1269.16284	1855.52246	682.86493	1078.71619	1863.52161	676.59808	1003.33154	1701.00342	723.28442	821.50018	1842.55371	757.19763	806.56238	1808.18396	752.02435	769.37921
